<?xml version="1.0" encoding="UTF-8" standalone="no"?><!-- Generator: Gravit.io --><svg xmlns="http://www.w3.org/2000/svg" xmlns:xlink="http://www.w3.org/1999/xlink" style="isolation:isolate" viewBox="-33.667 638.957 996.532 677.293" width="996.532pt" height="677.293pt"><defs><clipPath id="_clipPath_hwCqTU16vH275ibOtHALDQPNY63HLYa5"><rect x="-33.667" y="638.957" width="996.532" height="677.293"/></clipPath></defs><g clip-path="url(#_clipPath_hwCqTU16vH275ibOtHALDQPNY63HLYa5)"><linearGradient id="_lgradient_0" x1="-0.06947052889509389" y1="0.45416286232531117" x2="0.9589929027474648" y2="0.875607742564187" gradientTransform="matrix(996.532,0,0,677.293,-33.667,638.957)" gradientUnits="userSpaceOnUse"><stop offset="2.5%" stop-opacity="1" style="stop-color:rgb(134,42,91)"/><stop offset="22.083333333333332%" stop-opacity="1" style="stop-color:rgb(73,33,108)"/><stop offset="27.043020361000963%" stop-opacity="1" style="stop-color:rgb(69,33,106)"/><stop offset="39.166666666666664%" stop-opacity="1" style="stop-color:rgb(40,29,90)"/><stop offset="52.09006333846208%" stop-opacity="1" style="stop-color:rgb(46,32,114)"/><stop offset="56.19999012123756%" stop-opacity="1" style="stop-color:rgb(46,32,115)"/><stop offset="59.88607331344989%" stop-opacity="1" style="stop-color:rgb(43,18,123)"/><stop offset="70.6888595180135%" stop-opacity="1" style="stop-color:rgb(51,34,139)"/><stop offset="78.70746676069678%" stop-opacity="1" style="stop-color:rgb(52,38,172)"/><stop offset="88.57037750593243%" stop-opacity="1" style="stop-color:rgb(29,83,173)"/><stop offset="100%" stop-opacity="1" style="stop-color:rgb(58,99,190)"/></linearGradient><path d=" M 143.203 858.742 C 148.662 858.194 165.75 857.164 178.688 857.813 C 209.968 859.381 253.958 873.625 261.75 874.125 C 263.342 874.392 275.493 875.926 284.5 872.5 C 288.298 871.228 293.713 866.64 295.75 864.5 C 296.618 863.588 299.105 860.246 301.846 855.658 C 306.917 847.17 314.247 834.631 320.333 826.333 C 331.648 810.907 344.301 796.913 348.75 792.938 C 355.67 786.754 363.986 779.975 370.5 775.125 C 432.375 732 477.802 730.169 529.125 734.625 C 543.346 735.86 553.547 740.609 568.172 744.984 C 583.359 750.75 597.404 749.983 606.375 748.875 C 622.074 747.428 632.316 738.211 642.75 726 C 648.551 719.212 653.363 710.084 659.625 701.625 C 678.149 679.999 701.666 661.807 726.75 651 C 728.308 650.465 748.766 643.964 750.375 643.5 C 793.655 633.724 831.363 641.485 856.125 650.25 C 871.808 658.272 885.394 665.035 896.25 673.5 C 930.559 700.253 943.5 722.625 947.625 732 C 960 763.313 963.936 794.944 962.625 814.5 C 962.132 821.848 962.913 829.919 960.375 840.375 C 960.159 849.225 953.816 866.578 947.25 880.5 C 942.409 890.764 938.812 898.875 935.833 904.163 C 918.951 926.121 904.143 938.966 887.25 950.625 C 881.672 954.475 872.599 959.521 864.937 965.813 C 861.244 968.845 840.937 988.875 837 1005.563 C 835.125 1009.125 831.75 1023.75 831.833 1027.049 C 831.421 1038.542 831.937 1064.813 831.844 1069.969 C 831.562 1072.031 832.125 1094.25 832.031 1100.625 C 831.75 1107.656 831.324 1121.136 829 1131 C 826 1146.25 817.877 1175.922 805.875 1197.375 C 793.125 1223.25 779.335 1233.235 779.625 1236 C 747.5 1268.25 756.5 1259.5 750.5 1264.5 C 742.75 1270.25 736.719 1276.469 730.969 1280.344 C 721.687 1286.625 719.36 1288.569 715.711 1290.375 C 715.344 1290.531 695.256 1298.866 689.484 1301.203 C 680.879 1303.199 669.604 1308.813 641.25 1313.25 C 622.833 1316.034 612.693 1316.015 589.125 1316.25 C 585.671 1315.497 564.902 1312.263 559.687 1311 C 550.854 1309.284 541.6 1306.501 536.25 1304.813 C 519.146 1299.415 516.937 1297.313 488 1279.333 C 471.141 1269.598 450.844 1252.156 441.75 1244.375 C 427.213 1236.618 418.227 1233.797 406.125 1233.141 C 393.036 1231.207 376.65 1233.313 360.844 1239.469 C 338.716 1248.087 316.924 1263.469 304.333 1271.333 C 282.372 1285.137 254.247 1294.311 246 1294.667 C 233.816 1298.743 217.308 1301.13 202.25 1301.75 C 194.519 1302.068 172.873 1302.137 166.875 1302 C 134.625 1302 114.75 1290.75 81 1273.75 C 67.022 1265.932 54.481 1256.347 42.667 1246.25 C 17.851 1225.042 -6.667 1183.917 -17 1161.5 C -30.417 1130.917 -31.667 1102.25 -33.667 1075.25 C -31.551 1022.235 -18.79 976.855 20.625 930.875 C 28.574 920.375 47.862 904.403 64 892.5 C 77.026 882.638 97.319 871.156 116.187 864.25 C 117.711 863.302 140.566 858.402 143.234 858.75" fill="url(#_lgradient_0)"/><ellipse vector-effect="non-scaling-stroke" cx="486.09331843280995" cy="999.1444765965366" rx="35.59513999190381" ry="35.07223829826853" fill="rgb(255,255,255)"/><rect x="332.524" y="1013.246" width="126.319" height="21.18" transform="matrix(0.963,-0.269,0.269,0.963,-260.44,143.888)" fill="rgb(255,255,255)"/><path d=" M 659.178 1025.859 C 668.395 1008.837 689.903 1002.612 707.179 1011.966 C 724.454 1021.32 730.997 1042.734 721.78 1059.756 C 712.564 1076.777 691.055 1083.003 673.78 1073.648 C 656.504 1064.294 649.961 1042.88 659.178 1025.859 Z " fill="rgb(255,255,255)"/><rect x="515.805" y="1011.533" width="146.138" height="21.18" transform="matrix(0.978,0.207,-0.207,0.978,223.768,-99.575)" fill="rgb(255,255,255)"/><ellipse vector-effect="non-scaling-stroke" cx="187.5" cy="1074" rx="152.5" ry="155" fill="rgb(255,255,255)"/><path d=" M 521.54 790.124 C 540.853 791.421 555.465 808.388 554.148 827.989 C 552.832 847.591 536.083 862.452 516.77 861.155 C 497.457 859.858 482.845 842.891 484.161 823.29 C 485.478 803.688 502.226 788.827 521.54 790.124 Z " fill="rgb(255,255,255)"/><rect x="432.182" y="899.014" width="146.138" height="21.18" transform="matrix(-0.17,0.985,-0.985,-0.17,1487.479,566.258)" fill="rgb(255,255,255)"/><path d=" M 590.695 1180.216 C 600.794 1196.73 595.385 1218.458 578.625 1228.707 C 561.865 1238.956 540.059 1233.869 529.96 1217.355 C 519.862 1200.841 525.271 1179.113 542.031 1168.864 C 558.791 1158.615 580.597 1163.702 590.695 1180.216 Z " fill="rgb(255,255,255)"/><rect x="556.137" y="1110.689" width="146.138" height="21.18" transform="matrix(-0.67,0.743,-0.743,-0.67,1883.313,1404.798)" fill="rgb(255,255,255)"/><rect x="657.501" y="966.153" width="146.138" height="21.18" transform="matrix(-0.417,0.909,-0.909,-0.417,1922.968,719.942)" fill="rgb(255,255,255)"/><circle vector-effect="non-scaling-stroke" cx="795.9999999999999" cy="808.0000000000002" r="123" fill="rgb(255,255,255)"/></g></svg>